<?xml version="1.0" encoding="UTF-8" standalone="no"?>
<!-- Created with Inkscape (http://www.inkscape.org/) -->

<svg
   xmlns:dc="http://purl.org/dc/elements/1.1/"
   xmlns:cc="http://creativecommons.org/ns#"
   xmlns:rdf="http://www.w3.org/1999/02/22-rdf-syntax-ns#"
   xmlns:svg="http://www.w3.org/2000/svg"
   xmlns="http://www.w3.org/2000/svg"
   xmlns:sodipodi="http://sodipodi.sourceforge.net/DTD/sodipodi-0.dtd"
   xmlns:inkscape="http://www.inkscape.org/namespaces/inkscape"
   width="210mm"
   height="297mm"
   viewBox="0 0 210 297"
   version="1.1"
   id="svg8"
   inkscape:version="0.92.1 r15371"
   sodipodi:docname="atmouse logo negro.svg">
  <defs
     id="defs2" />
  <sodipodi:namedview
     id="base"
     pagecolor="#ffffff"
     bordercolor="#666666"
     borderopacity="1.0"
     inkscape:pageopacity="0.0"
     inkscape:pageshadow="2"
     inkscape:zoom="1.4"
     inkscape:cx="400.2696"
     inkscape:cy="645.15998"
     inkscape:document-units="mm"
     inkscape:current-layer="layer1"
     showgrid="false"
     inkscape:window-width="1920"
     inkscape:window-height="1018"
     inkscape:window-x="-8"
     inkscape:window-y="768"
     inkscape:window-maximized="1" />
  <metadata
     id="metadata5">
    <rdf:RDF>
      <cc:Work
         rdf:about="">
        <dc:format>image/svg+xml</dc:format>
        <dc:type
           rdf:resource="http://purl.org/dc/dcmitype/StillImage" />
        <dc:title></dc:title>
      </cc:Work>
    </rdf:RDF>
  </metadata>
  <g
     inkscape:label="Layer 1"
     inkscape:groupmode="layer"
     id="layer1">
    <path
       style="fill:#000000;stroke-width:0.26458335"
       d="m 35.714954,148.48371 c -0.372287,-0.69123 -1.259882,-2.38787 -1.972431,-3.77031 l -1.295543,-2.51355 -14.050125,-0.0685 c -7.727569,-0.0377 -14.0501255,-0.10387 -14.0501255,-0.14713 0,-0.0433 0.791309,-1.7984 1.758463,-3.90029 0.967155,-2.10189 1.813098,-4.2681 1.879874,-4.8138 l 0.121411,-0.99219 H 17.55959 c 5.199212,0 9.518214,-0.0651 9.597783,-0.14467 0.148405,-0.14841 -8.217509,-17.02764 -8.768554,-17.69161 -0.239917,-0.28908 -0.0332,-0.91738 0.959043,-2.91484 l 1.264885,-2.54633 3.574804,0.0732 3.574804,0.0732 1.864233,3.64791 c 1.025329,2.00636 1.948063,3.56409 2.05052,3.46164 0.10246,-0.10246 0.186288,-1.77379 0.186288,-3.71407 v -3.52778 h 17.727083 17.727083 v 4.8948 4.89479 h -6.085416 -6.085417 v 15.47812 15.47813 h -9.377444 -9.377447 z m 8.065029,-4.78111 c -0.151206,-0.0504 -0.27492,-0.20198 -0.27492,-0.33685 0,-0.29703 -4.03828,-9.15053 -4.936699,-10.82319 -0.351729,-0.65484 -2.034003,-3.98536 -3.738383,-7.40115 -1.704382,-3.41578 -3.191571,-6.33281 -3.304862,-6.48229 -0.113292,-0.14947 -1.144119,-2.11724 -2.290726,-4.37281 l -2.084742,-4.10104 -2.932682,-0.0748 -2.932682,-0.0748 -0.953391,1.92687 -0.953391,1.92688 4.787737,9.47515 c 2.633256,5.21134 4.787738,9.58689 4.787738,9.72344 0,0.15021 -3.898001,0.24828 -9.868724,0.24828 H 9.2155325 l -0.357088,0.99219 c -0.196398,0.5457 -0.934692,2.21861 -1.640651,3.71758 -0.70596,1.49897 -1.283564,2.77889 -1.283564,2.84427 0,0.0654 6.1019535,0.1208 13.5598965,0.12315 l 13.559895,0.004 1.956835,3.82478 1.956837,3.82478 3.467121,0.0736 3.467124,0.0736 0.07648,-2.5101 c 0.04779,-1.56827 -0.02667,-2.54448 -0.198438,-2.60174 z m 10.372426,-10.43243 0.06828,-15.41198 6.01927,-0.0711 6.019271,-0.0711 v -3.83149 -3.83149 H 49.590479 32.92173 v 3.83646 3.83645 h 6.085416 6.085417 v 15.47813 15.47813 h 4.495784 4.495784 z m -10.11818,-3.10886 v -11.37708 h -5.55625 c -3.055937,0 -5.556249,0.0718 -5.556249,0.15964 0,0.45629 6.458836,12.73782 6.895549,13.11194 0.28203,0.2416 0.512784,0.69504 0.512784,1.00763 0,0.3126 0.698068,2.07945 1.551262,3.92634 0.853194,1.8469 1.635123,3.62588 1.737622,3.9533 0.102497,0.32742 0.237866,0.59531 0.300821,0.59531 0.06295,0 0.114461,-5.11968 0.114461,-11.37708 z m 12.964584,4.89479 v -14.68437 h 4.475868 c 2.461726,0 4.515554,0.1072 4.564063,0.23822 0.05199,0.14044 0.685556,0.14257 1.543402,0.005 2.516827,-0.40305 5.864288,0.47319 8.222437,2.15234 l 0.787527,0.56077 1.261002,-0.80918 c 4.663625,-2.99264 10.129964,-2.59744 14.157372,1.02355 2.443446,2.19686 4.142475,5.68791 4.150712,8.52858 0.0061,2.10916 0.363829,2.27294 0.731467,0.33492 1.400194,-7.38117 8.780307,-12.89135 15.770517,-11.77466 2.30109,0.3676 3.9493,1.00296 5.81585,2.2419 3.07101,2.03842 5.58035,5.74348 6.36951,9.40463 0.35498,1.64685 0.3716,1.43643 0.39174,-4.96094 l 0.021,-6.68073 h 4.49792 4.49792 v 9.1109 c 0,5.16095 0.10978,9.39965 0.25321,9.77691 0.72594,1.90936 5.63586,2.36192 7.50577,0.69184 l 0.83998,-0.75021 0.0816,-9.41472 0.0816,-9.41472 h 4.36479 4.36478 l -0.0807,9.98802 -0.0807,9.98802 -0.84186,1.71979 c -2.04875,4.18534 -6.49229,7.06363 -11.33968,7.34527 -2.64395,0.15362 -4.52938,-0.22555 -6.99348,-1.40645 -2.1699,-1.03989 -4.86767,-3.52703 -5.79288,-5.34059 -0.75886,-1.4875 -1.3533,-3.84957 -1.37972,-5.48246 l -0.0216,-1.33347 -0.39427,1.85208 c -1.0554,4.95778 -4.66375,9.23605 -9.26217,10.98179 -1.88847,0.71694 -5.48621,0.98382 -7.48472,0.55522 -5.34324,-1.14591 -10.159213,-6.20847 -11.226791,-11.80159 -0.334544,-1.75271 -0.363344,-1.8024 -0.536749,-0.92605 -0.10078,0.50933 -0.147418,3.63482 -0.103638,6.94555 l 0.07959,6.0195 -4.416504,-2.3e-4 -4.416502,-2.3e-4 -0.08142,-9.45886 c -0.08854,-10.2877 -0.09268,-10.31596 -1.599816,-10.94024 -0.406628,-0.16843 -1.293046,-0.24382 -1.969818,-0.16754 -2.410878,0.27174 -2.541963,0.9528 -2.41804,12.56319 l 0.08543,8.00385 -4.828645,-2e-4 -4.828646,-2e-4 v -9.13663 c 0,-9.98238 -0.09573,-10.71942 -1.459635,-11.23797 -1.241023,-0.47184 -2.681592,-0.31673 -3.486549,0.3754 l -0.742358,0.63831 -0.07557,9.68045 -0.07557,9.68044 h -4.488532 -4.488494 z m 7.990728,4.82865 c 0.08627,-9.8876 0.132869,-10.19806 1.683314,-11.21395 0.860901,-0.56409 3.174899,-0.57178 4.253243,-0.0142 1.595699,0.82517 1.679924,1.33465 1.86527,11.28319 l 0.167801,9.00689 h 3.793779 3.793781 l 5.29e-4,-8.92969 c 5.29e-4,-9.79341 0.04474,-10.09858 1.634667,-11.26378 0.912768,-0.66893 3.336375,-0.7147 4.303117,-0.0813 1.590657,1.04224 1.590562,1.04164 1.734722,11.00206 l 0.132292,9.14039 3.505729,0.0738 3.505729,0.0738 -0.0065,-8.67279 c -0.0037,-4.88103 -0.123597,-9.18039 -0.274238,-9.83383 -0.753681,-3.26924 -3.420758,-6.61349 -6.466274,-8.10806 -1.43738,-0.70538 -1.8377,-0.77882 -4.233333,-0.77657 -2.445245,0.002 -2.780488,0.0679 -4.421978,0.86574 -0.976882,0.47478 -2.117466,1.15045 -2.534632,1.50147 l -0.758486,0.63823 -1.237568,-0.87988 c -2.763848,-1.96503 -6.023117,-2.69352 -8.930396,-1.99607 -1.045681,0.25085 -1.431351,0.25941 -1.506675,0.0334 -0.06948,-0.20844 -1.214803,-0.30371 -3.651062,-0.30371 h -3.549828 v 13.58195 c 0,7.47007 0.07937,13.66132 0.17639,13.75833 0.09701,0.097 1.698543,0.17639 3.558956,0.17639 h 3.38257 z m 48.130969,8.79772 c 6.08542,-1.12839 11.06789,-7.20154 11.07933,-13.50463 0.0154,-8.50429 -8.13525,-15.30339 -16.13644,-13.46063 -5.02241,1.15671 -9.453533,5.98248 -10.361813,11.28467 -1.5128,8.83108 6.794843,17.27971 15.418923,15.68059 z m -4.92482,-6.99326 c -1.40647,-0.51415 -3.13924,-2.44207 -3.56653,-3.96819 -0.51699,-1.84652 -0.24723,-5.07699 0.54341,-6.5073 1.26933,-2.29633 4.10842,-3.45697 7.11211,-2.90747 2.04618,0.37433 3.42008,1.39519 4.33242,3.21918 0.64018,1.27987 0.74849,1.81225 0.74849,3.67908 0,1.87733 -0.10527,2.38851 -0.75254,3.65415 -1.08512,2.12177 -2.58236,3.00155 -5.31863,3.12522 -1.34364,0.0607 -2.4018,-0.0399 -3.09873,-0.29467 z m 5.62613,-1.26263 c 0.79234,-0.36976 1.34338,-0.8931 1.85093,-1.75787 0.63399,-1.08021 0.72268,-1.50741 0.72258,-3.48032 -1.4e-4,-2.69273 -0.6102,-4.10792 -2.23411,-5.18257 -1.89157,-1.25178 -5.024,-1.14694 -6.99107,0.23398 -1.49553,1.04989 -2.29133,4.07328 -1.75374,6.6628 0.76705,3.69488 4.59777,5.30092 8.40541,3.52398 z m 26.93517,8.23554 c 3.8822,-0.7038 7.48004,-3.37549 9.17222,-6.81112 l 0.8644,-1.75498 0.0843,-9.33298 0.0843,-9.33298 h -3.59002 -3.59002 l -5.3e-4,8.7974 c -5.3e-4,9.85027 -0.0451,10.11978 -1.85167,11.16964 -0.75763,0.4403 -1.39168,0.53817 -3.48633,0.53817 -2.7803,0 -3.39156,-0.24416 -4.56712,-1.82428 -0.52791,-0.7096 -0.54416,-1.02281 -0.50343,-9.70709 l 0.0422,-8.97384 h -3.56014 -3.56013 l 0.0785,9.59115 0.0785,9.59114 0.74416,1.41293 c 1.45092,2.75488 4.11536,5.0085 7.19334,6.08424 2.51005,0.87725 3.90769,0.99854 6.36755,0.5526 z m 21.54599,0.89557 c -3.69342,-0.61826 -7.54959,-3.0529 -9.14363,-5.77293 -0.52427,-0.8946 -1.38196,-4.77687 -1.11361,-5.04071 0.0389,-0.0383 2.06508,0.11846 4.50255,0.34831 3.93397,0.37096 4.43177,0.47133 4.43177,0.89349 0,0.85148 1.03271,1.1517 3.96875,1.15374 1.63003,0.001 2.99213,-0.12444 3.29596,-0.30384 0.5844,-0.34509 0.87826,-0.24592 -4.47689,-1.51082 -5.12557,-1.21067 -8.51133,-3.26114 -9.97955,-6.04379 -0.86775,-1.64458 -0.86531,-4.88392 0.005,-6.55941 0.82122,-1.58111 1.95783,-2.76099 3.86042,-4.00741 5.30362,-3.47446 12.72172,-2.63306 16.93819,1.92123 1.63167,1.7624 2.15995,3.09455 2.42133,6.1058 l 0.17666,2.03525 -1.55646,-0.3575 c -0.85604,-0.19662 -2.80254,-0.61322 -4.32554,-0.92576 -2.8303,-0.58084 -3.44862,-0.85036 -3.44862,-1.50327 0,-0.51197 -1.11214,-0.88709 -2.62998,-0.88709 -1.48454,0 -2.92627,0.25239 -2.92627,0.51228 0,0.0999 1.27992,0.45921 2.84427,0.79857 4.85751,1.05374 8.09712,2.47369 10.20888,4.47465 1.47805,1.4005 2.09117,2.76296 2.23512,4.96677 0.10589,1.62119 0.0282,2.09662 -0.54855,3.35638 -1.72204,3.76144 -6.99164,6.58657 -12.11079,6.49282 -1.08211,-0.0198 -2.26513,-0.0859 -2.62893,-0.14676 z m 7.23531,-1.43556 c 2.09705,-0.70644 3.59215,-1.59846 4.9425,-2.9488 1.64979,-1.6498 2.22207,-2.92536 2.2243,-4.95785 0.005,-4.27017 -2.83086,-6.5513 -10.535,-8.47517 -4.93229,-1.23168 -4.92544,-1.22891 -4.92544,-1.99808 0,-1.08732 1.05651,-1.5212 3.70416,-1.5212 2.47592,0 3.50474,0.36593 3.81981,1.35864 0.1236,0.38943 0.85173,0.63699 3.52579,1.19875 1.85352,0.38938 3.49757,0.70748 3.65346,0.70689 0.51041,-0.002 -0.0755,-3.39743 -0.79941,-4.63266 -1.32902,-2.2678 -4.51028,-4.49358 -7.36378,-5.15209 -6.03483,-1.39268 -13.00836,2.42389 -13.83121,7.56974 -0.24474,1.53054 0.44553,3.70081 1.60962,5.06079 1.38115,1.61356 4.47501,3.05044 8.98885,4.17468 4.54595,1.13224 5.15937,1.37006 5.15937,2.00029 0,0.95641 -1.22618,1.41226 -4.08332,1.51803 -3.16199,0.11704 -4.81153,-0.23917 -5.21574,-1.12631 -0.25072,-0.55029 -0.51679,-0.63213 -2.56792,-0.78986 -1.25853,-0.0968 -2.8724,-0.24904 -3.58638,-0.33836 l -1.29816,-0.1624 0.16873,1.23105 c 0.23683,1.72786 0.9697,3.02362 2.54189,4.49421 3.43746,3.21535 9.17704,4.36994 13.86788,2.78971 z m 20.94281,1.17395 c -2.28426,-0.51124 -5.15742,-1.73256 -6.25542,-2.65904 -0.23902,-0.20169 -0.7727,-0.45713 -1.18594,-0.56764 -0.60894,-0.16286 -1.13665,-0.84899 -2.7842,-3.62004 -1.23597,-2.07883 -1.95708,-3.55448 -1.83958,-3.76445 0.10629,-0.18993 0.10834,-0.96506 0.005,-1.72249 -0.55284,-4.03451 1.11536,-8.97314 4.07309,-12.0582 5.44694,-5.68141 14.8066,-5.58996 20.56372,0.20093 1.83674,1.84751 3.99651,5.26191 4.45348,7.04054 1.28586,5.00492 0.17304,8.72353 -3.80053,12.69981 -2.33089,2.33247 -4.83703,3.83722 -7.22292,4.33681 -1.36235,0.28526 -4.93742,0.35298 -6.00625,0.11377 z m 6.03428,-1.00861 c 2.54854,-0.66381 4.14899,-1.65661 6.56453,-4.07215 3.24979,-3.24979 4.44925,-6.00449 4.04491,-9.28969 -0.31523,-2.56121 -0.19825,-2.52905 -3.01767,-0.82964 -2.28468,1.3771 -2.59023,1.65829 -3.35573,3.08824 -0.4632,0.86525 -1.24815,1.94522 -1.74432,2.39993 -1.74764,1.60159 -6.14449,2.65288 -8.22437,1.96646 -0.5297,-0.17482 -0.96308,-0.39944 -0.96308,-0.49917 0,-0.0997 3.58288,-2.31211 7.96197,-4.91641 4.37908,-2.60429 8.02355,-4.89556 8.09882,-5.09171 0.22103,-0.57599 -2.01853,-4.07199 -3.57368,-5.57861 -2.64935,-2.56667 -7.33736,-4.2706 -10.76732,-3.91356 -4.86047,0.50595 -8.48121,2.86281 -10.64028,6.92609 -1.36563,2.57006 -1.74733,4.52248 -1.57638,8.06323 l 0.1483,3.07187 1.6207,2.68281 c 0.89138,1.47555 1.73984,2.68282 1.88546,2.68282 0.14563,0 0.76247,0.34089 1.37078,0.75754 3.73698,2.5596 8.39069,3.53565 12.16736,2.55195 z M 185.8509,134.49149 c 0,-2.83902 2.36763,-5.40362 5.83242,-6.31761 1.9687,-0.51934 4.96407,-0.0896 4.70084,0.67441 -0.0719,0.20876 -10.15751,6.3401 -10.42899,6.3401 -0.0573,0 -0.10427,-0.3136 -0.10427,-0.6969 z m 6.1682,-3.9333 c 1.25698,-0.72761 2.28835,-1.4288 2.29194,-1.55821 0.0107,-0.38595 -2.50542,0.0307 -3.95734,0.65529 -1.44792,0.62288 -3.17989,2.37742 -3.17989,3.22134 0,0.46088 0.10808,0.4401 1.27994,-0.24606 0.70397,-0.4122 2.30838,-1.34476 3.56535,-2.07236 z m 4.57413,9.40815 c 0.70929,-0.31375 1.57058,-0.83253 1.91397,-1.15285 0.68679,-0.64062 1.74621,-2.53994 1.53472,-2.75143 -0.13049,-0.13049 -7.18649,3.97894 -7.70873,4.48958 -0.48687,0.47606 2.91831,0.008 4.26004,-0.5853 z"
       id="path3691"
       inkscape:connector-curvature="0" />
    <path
       style="stroke-width:0.71428573"
       d="m 132.52654,547.10646 -7.49347,-14.62743 H 74.133686 c -27.99466,0 -50.899381,-0.25282 -50.899381,-0.56183 0,-0.30901 2.206228,-5.37151 4.902729,-11.25 2.696501,-5.87849 5.315665,-11.84697 5.820364,-13.26328 l 0.917636,-2.57511 36.858207,-0.51428 c 20.272014,-0.28286 37.120419,-0.76842 37.440909,-1.07902 0.32049,-0.31062 -7.54731,-16.8286 -17.484005,-36.70664 l -18.066713,-36.1419 3.555437,-7.25475 3.555436,-7.25475 5.714286,0.43935 c 3.142857,0.24165 8.017243,0.44129 10.831971,0.44364 l 5.117688,0.004 10.06863,19.46429 c 16.56472,32.02228 40.13081,79.42433 45.36525,91.25 2.69533,6.08928 5.65631,12.73833 6.57996,14.77565 1.73132,3.81883 2.23164,10.71648 1.22089,16.83149 l -0.44273,2.67857 -12.58512,-0.0154 -12.58511,-0.0154 -7.49348,-14.62743 z"
       id="path3693"
       inkscape:connector-curvature="0"
       transform="scale(0.26458333)" />
    <path
       style="stroke-width:0.71428573"
       d="m 171.09145,503.19331 v -58.57143 h -23.21429 -23.21428 v -14.28571 -14.28571 h 62.85714 62.85714 v 14.28571 14.28571 l -13.75,0.003 c -7.5625,0.002 -17.84821,0.21191 -22.85714,0.46738 l -9.10714,0.46447 v 20.48654 c 0,11.26759 -0.21328,37.41441 -0.47396,58.10405 l -0.47396,37.61749 h -16.31175 -16.31176 z"
       id="path3695"
       inkscape:connector-curvature="0"
       transform="scale(0.26458333)" />
    <path
       style="stroke-width:0.71428573"
       d="m 219.38215,561.34918 c -0.23846,-0.62142 -0.43356,-23.76427 -0.43356,-51.42857 v -50.29873 h 12.71429 c 8.79894,0 12.9732,0.25892 13.55505,0.84077 0.64484,0.64484 1.90414,0.64484 5.40378,0 13.01706,-2.39848 23.18882,-0.1078 34.95824,7.8726 l 4.13136,2.80132 3.37014,-2.47391 c 4.78521,-3.51266 12.92699,-7.4563 17.3539,-8.4057 2.13588,-0.45806 6.98231,-0.66805 11.14527,-0.4829 6.86981,0.30553 7.76464,0.52512 13.28341,3.25979 11.27712,5.58803 21.54534,18.37503 23.96256,29.84053 0.42508,2.01626 0.98499,18.17548 1.26843,36.60714 l 0.50742,32.99751 h -13.32692 -13.32693 l -0.0364,-20.17857 c -0.0554,-30.78076 -0.92737,-48.39567 -2.56067,-51.73189 -2.00698,-4.09948 -5.79315,-5.92041 -12.34022,-5.93494 -4.39341,-0.01 -5.821,0.29687 -8.38888,1.80175 -1.70197,0.99742 -3.59709,2.7854 -4.21137,3.9733 -1.76043,3.4043 -2.43828,15.87944 -2.45088,45.10606 l -0.0116,26.96429 H 290.02 276.09143 l -0.0186,-4.10715 c -0.0763,-16.81966 -1.50692,-58.81791 -2.13894,-62.78987 -0.42784,-2.68878 -1.26747,-5.63885 -1.86585,-6.55569 -1.73061,-2.65168 -6.38933,-4.37093 -11.89239,-4.38875 -7.66142,-0.0248 -11.62232,2.4005 -13.38954,8.1986 -0.60657,1.9901 -0.95802,12.28621 -1.15813,33.92857 -0.158,17.08929 -0.45436,32.11607 -0.65856,33.39286 l -0.37128,2.32143 h -12.39121 c -10.64024,0 -12.45248,-0.15966 -12.82478,-1.12985 z"
       id="path3697"
       inkscape:connector-curvature="0"
       transform="scale(0.26458333)" />
    <path
       style="stroke-width:0.71428573"
       d="m 410.73431,561.46822 c -17.62767,-4.08381 -31.60239,-16.20456 -38.40567,-33.31054 -5.07926,-12.77116 -4.42519,-25.6019 1.98263,-38.89294 11.60729,-24.07569 36.33974,-35.34122 59.73015,-27.20684 7.62758,2.65261 12.482,5.85583 19.58144,12.92095 5.47651,5.45003 6.96424,7.46181 9.77217,13.21446 4.31982,8.85007 5.84276,15.88148 5.39515,24.90936 -0.39051,7.87644 -3.05565,16.68596 -7.08069,23.40501 -3.55231,5.92992 -11.68164,14.32028 -17.66767,18.23496 -9.65305,6.3128 -23.24368,9.05707 -33.30751,6.72558 z m 20.35714,-26.60507 c 4.16321,-1.87631 7.43586,-5.26357 10.23982,-10.59841 2.17817,-4.14421 2.25259,-4.58051 2.25396,-13.21428 10e-4,-8.41089 -0.11902,-9.17449 -2.07579,-13.16984 -4.51434,-9.21743 -11.64254,-13.47488 -22.56085,-13.47488 -13.95926,0 -22.23763,7.09541 -24.33709,20.85939 -1.04326,6.83955 -0.32843,13.73859 1.90774,18.41216 2.05722,4.29957 9.21035,11.28472 12.63383,12.33713 1.26254,0.38812 5.99195,0.6138 10.50981,0.50151 6.40135,-0.15909 8.92369,-0.52387 11.42857,-1.65278 z"
       id="path3699"
       inkscape:connector-curvature="0"
       transform="scale(0.26458333)" />
    <path
       style="stroke-width:0.71428573"
       d="m 513.31428,561.01835 c -14.11781,-3.69727 -26.30765,-13.02706 -32.40913,-24.80514 l -2.48948,-4.80561 -0.45768,-35.89286 -0.45768,-35.89286 h 13.19788 13.19788 l 0.20483,34.22016 0.20483,34.22015 2.21859,2.74413 c 4.08491,5.05256 5.75687,5.60128 17.06713,5.60128 9.65661,0 10.11637,-0.0684 13.38888,-1.99207 1.86388,-1.09563 3.89637,-2.97345 4.51664,-4.17291 1.72565,-3.33705 2.41595,-16.01843 2.43471,-44.72788 l 0.0169,-25.89286 h 13.21027 13.21026 l -0.42549,34.82143 -0.42547,34.82143 -2.95842,6.07143 c -2.35001,4.82284 -4.20839,7.3323 -9.03661,12.2026 -5.09516,5.13957 -7.17537,6.66701 -12.86208,9.44422 -11.09059,5.41631 -21.13584,6.70947 -31.34677,4.03536 z"
       id="path3701"
       inkscape:connector-curvature="0"
       transform="scale(0.26458333)" />
    <path
       style="stroke-width:0.71428573"
       d="m 617.93574,561.61961 c -14.74362,-1.36287 -30.0743,-10.23238 -35.77625,-20.69823 -1.92548,-3.53419 -4.31216,-12.731 -3.30248,-12.72572 1.68499,0.009 22.92261,2.22689 24.2717,2.53497 0.92407,0.21102 2.47432,1.32753 3.445,2.48112 2.46959,2.93493 6.30584,3.79701 16.72061,3.75745 12.9504,-0.0492 18.51141,-1.91549 18.51141,-6.21247 0,-1.88947 -2.84926,-3.11208 -14.28624,-6.13019 -15.67987,-4.13776 -21.61819,-6.16319 -28.72464,-9.79732 -10.00983,-5.11887 -14.39038,-10.57096 -16.35556,-20.35632 -0.90683,-4.51542 0.2967,-10.06412 3.31162,-15.2678 2.83111,-4.88642 10.65267,-11.60141 17.07358,-14.65807 7.96525,-3.79182 13.0772,-4.99195 21.48124,-5.04314 8.22126,-0.0501 14.87299,1.776 22.27768,6.11577 11.58749,6.79124 17.34261,15.05552 18.52564,26.6026 l 0.46578,4.5463 -2.42026,-0.43969 c -8.04311,-1.46119 -19.25727,-4.00261 -21.70598,-4.91915 -1.72872,-0.64704 -3.32619,-1.89648 -4.04477,-3.16354 -1.58718,-2.79867 -4.82915,-3.61538 -14.37103,-3.62031 -8.40146,-0.004 -11.96846,0.94881 -13.37316,3.5735 -0.45788,0.85557 -0.64486,2.30324 -0.4155,3.21706 0.48257,1.92272 1.87443,2.44349 17.91875,6.70436 16.56921,4.40028 23.01771,6.91169 29.59694,11.52676 4.39279,3.08136 6.04386,4.98357 8.67655,9.99625 1.41013,2.68492 1.68061,4.27101 1.70158,9.97808 0.0324,8.82955 -1.37048,11.9883 -8.37532,18.85752 -6.07706,5.95939 -11.44313,8.99249 -20.21674,11.42723 -7.29049,2.02316 -12.53716,2.45923 -20.61015,1.71298 z"
       id="path3703"
       inkscape:connector-curvature="0"
       transform="scale(0.26458333)" />
    <path
       style="stroke-width:0.71428573"
       d="m 726.09145,561.34377 c -8.39869,-1.45784 -11.04325,-2.11735 -15.75318,-3.9286 -6.43118,-2.47318 -18.62625,-9.66606 -20.54911,-12.12024 -0.75174,-0.95946 -3.57876,-5.28019 -6.28226,-9.60162 l -4.91545,-7.85714 -0.2235,-12.6644 c -0.26345,-14.92782 0.36255,-18.26574 5.31744,-28.35355 4.20912,-8.56946 12.17883,-16.9456 19.90606,-20.92121 8.82957,-4.54276 14.52782,-5.92293 24.28571,-5.88225 7.74191,0.0323 9.22814,0.25983 15.35715,2.35135 9.06293,3.09271 16.96035,7.93434 22.49282,13.78955 5.14295,5.44297 11.93531,16.00345 11.63724,18.0931 -0.25484,1.78661 -3.09619,3.65636 -33.41578,21.98935 -13.55357,8.19527 -25.11122,15.36051 -25.68367,15.92275 -1.2509,1.22859 -0.59949,1.95645 2.75454,3.07782 5.83876,1.9521 18.83512,-0.16022 26.6661,-4.33409 4.43955,-2.36625 7.30627,-5.43152 11.2199,-11.99699 1.28798,-2.16072 3.01827,-4.66525 3.84507,-5.56563 1.67972,-1.82919 14.2812,-9.73738 16.64919,-10.44837 2.11797,-0.63592 2.52742,0.70241 2.93255,9.58543 0.29046,6.36864 0.11618,8.13918 -1.15534,11.73725 -2.55916,7.24179 -5.85253,11.8866 -14.72834,20.77215 -9.17633,9.18639 -13.21423,11.8635 -21.90271,14.52141 -4.66625,1.42747 -14.92362,2.4468 -18.45443,1.83393 z m -8.47098,-58.60091 c 19.25122,-11.56565 24.89955,-15.26081 24.89955,-16.28939 0,-2.66879 -10.75762,-4.0657 -17.66761,-2.29418 -12.31329,3.15677 -21.06502,11.54483 -22.59472,21.65583 -0.45691,3.02008 -0.0444,5.23534 0.97492,5.23534 0.30786,0 6.7824,-3.73842 14.38786,-8.3076 z"
       id="path3705"
       inkscape:connector-curvature="0"
       transform="scale(0.26458333)" />
    <path
       style="stroke-width:0.08928572"
       d=""
       id="path3707"
       inkscape:connector-curvature="0"
       transform="scale(0.26458333)" />
    <path
       style="stroke-width:0.08928572"
       d="M 92.079878,467.66421 C 91.3592,466.22248 86.836613,457.26089 82.029684,447.74957 l -8.739871,-17.29331 3.59414,-7.28119 c 1.976778,-4.00466 3.640498,-7.28182 3.697156,-7.28258 0.05666,-7.7e-4 -1.497074,3.25948 -3.45274,7.24499 l -3.555757,7.24639 9.953264,19.90636 c 5.474294,10.94851 9.933252,19.92638 9.908794,19.95084 -0.02446,0.0245 -0.634115,-1.13513 -1.354792,-2.57686 z"
       id="path3709"
       inkscape:connector-curvature="0"
       transform="scale(0.26458333)" />
    <path
       style="stroke-width:0.08928572"
       d=""
       id="path3711"
       inkscape:connector-curvature="0"
       transform="scale(0.26458333)" />
    <path
       style="stroke-width:0.08928572"
       d=""
       id="path3713"
       inkscape:connector-curvature="0"
       transform="scale(0.26458333)" />
    <path
       style="stroke-width:0.08928572"
       d=""
       id="path3715"
       inkscape:connector-curvature="0"
       transform="scale(0.26458333)" />
  </g>
</svg>
